#N canvas 439 376 450 300 10;
#X floatatom 201 57 5 0 0 0 - - -;
#X obj 163 83 uzi;
#X obj 163 58 bng 15 250 50 0 empty empty empty 17 7 0 10 -262144 -1
-1;
#X floatatom 138 145 5 0 0 0 - - -;
#X text 199 12 set count max;
#X text 136 59 GO!;
#X obj 201 36 \$1;
#X obj 163 13 inlet;
#X obj 293 12 inlet;
#X obj 138 170 outlet;
#X obj 138 116 counter 1 4;
#X obj 163 36 t b b;
#X obj 293 32 loadbang;
#X connect 0 0 1 1;
#X connect 0 0 10 4;
#X connect 1 0 10 0;
#X connect 2 0 1 0;
#X connect 6 0 0 0;
#X connect 7 0 11 0;
#X connect 8 0 0 0;
#X connect 10 0 3 0;
#X connect 10 0 9 0;
#X connect 11 0 2 0;
#X connect 11 1 10 2;
#X connect 12 0 6 0;
