#N canvas 191 694 823 589 10;
#X obj 119 -38 *~;
#X obj 187 -286 vradio 15 1 0 4 empty empty empty 0 -8 0 10 -262144
-1 -1 2;
#X obj 120 -8 +~;
#X obj 178 -39 *~;
#X floatatom 187 -213 5 0 0 0 - - -;
#X obj 238 -39 *~;
#X obj 297 -39 *~;
#X obj 134 -168 == 0;
#X obj 193 -169 == 1;
#X obj 253 -169 == 2;
#X obj 312 -169 == 3;
#X obj 118 -75 inlet~;
#X obj 179 -75 inlet~;
#X obj 238 -75 inlet~;
#X obj 296 -75 inlet~;
#X obj 187 -316 inlet;
#X obj 119 32 outlet~;
#X obj 391 -39 *~;
#X obj 390 -75 inlet~;
#X obj 453 -39 *~;
#X obj 452 -75 inlet~;
#X obj 406 -169 == 4;
#X obj 468 -169 == 5;
#X obj 612 -242 print;
#X obj 612 -291 bng 15 250 50 0 empty empty empty 17 7 0 10 -262144
-1 -1;
#X obj 402 -303 inlet;
#X floatatom 402 -277 5 0 0 0 - - -;
#X obj 476 -270 \$1;
#X obj 709 47 matrix~;
#X obj 612 -267 ajm-fastcount 5;
#X connect 0 0 2 0;
#X connect 1 0 4 0;
#X connect 2 0 16 0;
#X connect 3 0 2 0;
#X connect 4 0 7 0;
#X connect 4 0 8 0;
#X connect 4 0 9 0;
#X connect 4 0 10 0;
#X connect 5 0 2 0;
#X connect 6 0 2 0;
#X connect 7 0 0 1;
#X connect 8 0 3 1;
#X connect 9 0 5 1;
#X connect 10 0 6 1;
#X connect 11 0 0 0;
#X connect 12 0 3 0;
#X connect 13 0 5 0;
#X connect 14 0 6 0;
#X connect 15 0 1 0;
#X connect 15 0 4 0;
#X connect 18 0 17 0;
#X connect 20 0 19 0;
#X connect 21 0 17 1;
#X connect 22 0 19 1;
#X connect 24 0 29 0;
#X connect 25 0 26 0;
#X connect 29 0 23 0;
