#N canvas 89 157 756 676 10;
#X obj 283 -93 vsl 15 128 0 127 0 0 empty empty empty 0 -9 0 10 -262144
-1 -1 0 1;
#X obj 244 75 *~;
#X obj 262 122 env~;
#X obj 261 147 - 100;
#X obj 132 94 env~;
#X obj 130 33 inlet~;
#X obj 182 277 outlet~;
#X obj 132 131 - 100;
#X obj 282 51 / 100;
#X obj 391 1 tgl 15 0 empty empty empty 17 7 0 10 -262144 -1 -1 0 1
;
#X obj 391 30 expr ($i1 - 1) * -1;
#X obj 243 97 *~;
#X text 409 -2 mute;
#X text 129 15 audio in;
#X text 181 297 out;
#X text 280 -141 level in;
#X obj 283 -122 inlet;
#X obj 391 -42 inlet;
#X obj 546 -12 tgl 15 0 empty empty empty 17 7 0 10 -262144 -1 -1 0
1;
#X obj 546 -39 inlet;
#X text 562 -13 bypass;
#X obj 177 193 *~;
#X obj 219 193 *~;
#X obj 543 22 expr ($i1 - 1) * -1;
#X obj 335 277 outlet;
#X obj 255 275 outlet;
#X text 241 294 pfl vu out;
#X text 329 296 vu out;
#X msg 467 -64 0;
#X obj 467 -94 loadbang;
#X connect 0 0 8 0;
#X connect 1 0 11 0;
#X connect 2 0 3 0;
#X connect 3 0 24 0;
#X connect 4 0 7 0;
#X connect 5 0 4 0;
#X connect 5 0 1 0;
#X connect 5 0 21 0;
#X connect 7 0 25 0;
#X connect 8 0 1 1;
#X connect 9 0 10 0;
#X connect 10 0 11 1;
#X connect 11 0 2 0;
#X connect 11 0 22 0;
#X connect 16 0 0 0;
#X connect 17 0 9 0;
#X connect 18 0 21 1;
#X connect 18 0 23 0;
#X connect 19 0 18 0;
#X connect 21 0 6 0;
#X connect 22 0 6 0;
#X connect 23 0 22 1;
#X connect 28 0 18 0;
#X connect 28 0 9 0;
#X connect 29 0 28 0;
