#N canvas 557 247 823 589 10;
#X obj 119 -131 *~;
#X obj 187 -286 vradio 15 1 0 4 empty empty empty 0 -8 0 10 -262144
-1 -1 0;
#X obj 120 -101 +~;
#X obj 150 -131 *~;
#X floatatom 187 -213 5 0 0 0 - - -;
#X obj 182 -131 *~;
#X obj 214 -131 *~;
#X obj 134 -168 == 0;
#X obj 165 -168 == 1;
#X obj 197 -168 == 2;
#X obj 229 -168 == 3;
#X obj 31 -275 inlet~;
#X obj 41 -265 inlet~;
#X obj 51 -255 inlet~;
#X obj 61 -245 inlet~;
#X obj 187 -316 inlet;
#X obj 119 -61 outlet~;
#X connect 0 0 2 0;
#X connect 1 0 4 0;
#X connect 2 0 16 0;
#X connect 3 0 2 0;
#X connect 4 0 7 0;
#X connect 4 0 8 0;
#X connect 4 0 9 0;
#X connect 4 0 10 0;
#X connect 5 0 2 0;
#X connect 6 0 2 0;
#X connect 7 0 0 1;
#X connect 8 0 3 1;
#X connect 9 0 5 1;
#X connect 10 0 6 1;
#X connect 11 0 0 0;
#X connect 12 0 3 0;
#X connect 13 0 5 0;
#X connect 14 0 6 0;
#X connect 15 0 1 0;
