#N canvas 509 285 450 300 10;
#X floatatom 40 71 5 0 0 0 - - -;
#X floatatom 85 70 5 0 0 0 - - -;
#X floatatom 133 74 5 0 0 0 - - -;
#X obj 65 96 bondo 3;
#X obj 57 124 pack f f f;
#X obj 207 243 outlet;
#X obj 26 44 / 127;
#X obj 60 7 ctlin;
#X msg 47 160 send /control/\$3/\$2 \$1;
#X obj 260 23 notein;
#X floatatom 259 53 5 0 0 0 - - -;
#X floatatom 303 53 5 0 0 0 - - -;
#X floatatom 344 53 5 0 0 0 - - -;
#X obj 270 84 bondo 3;
#X obj 266 119 pack f f f;
#X msg 267 158 send /note/\$3/\$1/\$2;
#X connect 0 0 3 0;
#X connect 1 0 3 1;
#X connect 2 0 3 2;
#X connect 3 0 4 0;
#X connect 3 1 4 1;
#X connect 3 2 4 2;
#X connect 4 0 8 0;
#X connect 6 0 0 0;
#X connect 7 0 6 0;
#X connect 7 1 1 0;
#X connect 7 2 2 0;
#X connect 8 0 5 0;
#X connect 9 0 10 0;
#X connect 9 1 11 0;
#X connect 9 2 12 0;
#X connect 10 0 13 0;
#X connect 11 0 13 1;
#X connect 12 0 13 2;
#X connect 13 0 14 0;
#X connect 13 1 14 1;
#X connect 13 2 14 2;
#X connect 14 0 15 0;
#X connect 15 0 5 0;
