#N canvas -3 51 546 405 10;
#X obj 50 38 inlet~;
#X obj 181 36 inlet~;
#X obj 291 35 inlet;
#X obj 43 215 outlet~;
#X obj 182 171 *~;
#X obj 44 173 *~;
#X obj 134 212 env~;
#X obj 133 237 - 100;
#X obj 133 263 outlet;
#X obj 182 212 env~;
#X obj 181 237 - 100;
#X obj 181 263 outlet;
#X floatatom 262 102 5 0 0 0 - - -;
#X floatatom 70 147 5 0 0 0 - - -;
#X obj 262 70 / 127;
#X obj 59 99 expr ($i1 - 127) * -1;
#X obj 59 122 / 127;
#X obj 245 13 loadbang;
#X msg 245 35 0;
#X connect 0 0 5 0;
#X connect 1 0 4 0;
#X connect 2 0 14 0;
#X connect 2 0 15 0;
#X connect 4 0 3 0;
#X connect 4 0 9 0;
#X connect 5 0 3 0;
#X connect 5 0 6 0;
#X connect 6 0 7 0;
#X connect 7 0 8 0;
#X connect 9 0 10 0;
#X connect 10 0 11 0;
#X connect 14 0 4 1;
#X connect 14 0 12 0;
#X connect 15 0 16 0;
#X connect 16 0 13 0;
#X connect 16 0 5 1;
#X connect 17 0 18 0;
#X connect 18 0 14 0;
#X connect 18 0 15 0;
