#N canvas 1163 95 610 562 10;
#X obj 160 -2 ajm-midiosc;
#X obj -48 456 sendOSC;
#X msg -48 44 disconnect;
#X msg -48 19 connect 255.255.255.255 9000;
#X msg -48 -4 connect localhost 9000;
#X msg 244 110 connect 10.73.25.67 9000;
#X obj 316 255 ajm-arduino;
#X connect 0 0 1 0;
#X connect 2 0 1 0;
#X connect 3 0 1 0;
#X connect 4 0 1 0;
#X connect 5 0 1 0;
#X connect 6 0 1 0;
