#N canvas 856 448 450 300 10;
#X obj 142 125 ajm-gate;
#X obj 119 46 osc~ 440;
#X obj 183 46 noise~;
#X obj 231 46 adc~;
#X floatatom 251 109 5 0 3 0 - - -;
#X obj 95 193 ajm-gain;
#X obj 196 155 vu 15 120 empty empty -1 -8 0 10 -66577 -1 1 0;
#X connect 0 0 5 0;
#X connect 1 0 0 0;
#X connect 2 0 0 1;
#X connect 3 0 0 2;
#X connect 3 1 0 3;
#X connect 4 0 0 4;
#X connect 5 1 6 0;
